<svg id="Group_3722" data-name="Group 3722" xmlns="http://www.w3.org/2000/svg" viewBox="0 0 17.939 22">
  <defs>
    <style>
      .cls-1 {
        fill: #fbbf00;
      }

      .cls-2 {
        fill: #ff6536;
      }
    </style>
  </defs>
  <path id="Path_2540" data-name="Path 2540" class="cls-1" d="M17.939,13.032A8.97,8.97,0,0,1,0,13.032c0-.172,0-.339.013-.507,0,0,1.048,1.366,2.3,1.186A6.741,6.741,0,0,1,3.046,6.1C4.868,10.364,9.874,8.082,7.67,0c8.6,1.938,7.279,13.088,7.279,13.088a9.024,9.024,0,0,0,2.69-2.359A8.837,8.837,0,0,1,17.939,13.032Z" transform="translate(0)"/>
  <path id="Path_2541" data-name="Path 2541" class="cls-1" d="M0,13.032A8.971,8.971,0,0,0,8.968,22V.387A9.357,9.357,0,0,0,7.67,0c2.2,8.082-2.8,10.364-4.628,6.093a6.745,6.745,0,0,0-.73,7.614c-1.25.18-2.3-1.186-2.3-1.186C0,12.693,0,12.861,0,13.032Z" transform="translate(0)"/>
  <g id="Group_3721" data-name="Group 3721" transform="translate(3.755 9.707)">
    <path id="Path_2542" data-name="Path 2542" class="cls-2" d="M91.379,225.9c2.032,2.754-.576,6.523-2.406,4.039a4.731,4.731,0,1,0,7.889,3.523C96.866,226.587,91.379,225.9,91.379,225.9Z" transform="translate(-87.4 -225.9)"/>
    <path id="Path_2543" data-name="Path 2543" class="cls-2" d="M92.135,238.193V226.08a4.376,4.376,0,0,0-.756-.18c2.032,2.754-.576,6.523-2.406,4.039a4.732,4.732,0,0,0,3.162,8.254Z" transform="translate(-87.4 -225.9)"/>
  </g>
</svg>
